<svg xmlns="http://www.w3.org/2000/svg" width="280.95" height="562.148" viewBox="0 0 280.95 562.148"><defs><style>.a{fill:#fff;}</style></defs><path class="a" d="M384.544,32H185.534A41.29,41.29,0,0,0,144,73.283V551.36c0,23.088,18.571,42.788,41.534,42.788H384.42c22.962,0,40.529-19.7,40.529-42.788V73.283C425.074,50.32,407.507,32,384.544,32ZM265.715,60.86h37.644a5.019,5.019,0,1,1,0,10.038H265.715a5.019,5.019,0,1,1,0-10.038Zm19.45,514.466A21.833,21.833,0,1,1,307,553.493,21.849,21.849,0,0,1,285.165,575.327Zm117.323-61.485h-235.9a2.517,2.517,0,0,1-2.51-2.51V98.5a2.517,2.517,0,0,1,2.51-2.51h235.9A2.517,2.517,0,0,1,405,98.5V511.332A2.517,2.517,0,0,1,402.488,513.842Z" transform="translate(-144 -32)"/></svg>